<?xml version="1.0" standalone="no"?>
<!DOCTYPE svg PUBLIC "-//W3C//DTD SVG 20010904//EN"
 "http://www.w3.org/TR/2001/REC-SVG-20010904/DTD/svg10.dtd">
<svg version="1.0" xmlns="http://www.w3.org/2000/svg"
 width="700.000000pt" height="700.000000pt" viewBox="0 0 700.000000 700.000000"
 preserveAspectRatio="xMidYMid meet">
<metadata>
Created by potrace 1.11, written by Peter Selinger 2001-2013
</metadata>
<g transform="translate(0.000000,700.000000) scale(0.100000,-0.100000)"
fill="#000000" stroke="none">
<path d="M3520 6425 c0 -6 -49 -11 -123 -12 -160 -2 -237 -7 -237 -13 0 -4
-10 -6 -22 -7 -70 -3 -143 -17 -383 -68 -11 -3 -31 -9 -45 -14 -14 -5 -51 -17
-83 -26 -32 -9 -70 -21 -85 -27 -15 -6 -33 -12 -40 -14 -8 -1 -21 -6 -30 -10
-9 -4 -19 -8 -22 -9 -3 0 -27 -11 -54 -23 -26 -12 -52 -19 -57 -16 -5 3 -9 1
-9 -4 0 -10 -73 -45 -95 -45 -8 0 -13 -3 -10 -5 3 -3 -39 -27 -93 -54 -53 -27
-104 -56 -113 -64 -9 -8 -18 -12 -21 -9 -3 3 -13 -4 -23 -15 -10 -11 -24 -20
-30 -20 -7 0 -18 -7 -25 -15 -7 -9 -19 -14 -26 -11 -8 3 -13 1 -11 -3 1 -5
-41 -39 -93 -76 -52 -37 -97 -70 -100 -74 -14 -19 -98 -80 -103 -76 -4 3 -5 2
-2 -2 7 -9 -26 -43 -42 -43 -8 0 -11 -4 -8 -10 3 -5 2 -10 -3 -10 -9 0 -100
-89 -189 -186 -55 -58 -122 -139 -166 -198 -21 -28 -44 -58 -51 -66 -7 -9 -15
-24 -19 -33 -3 -9 -11 -17 -17 -17 -5 0 -10 -4 -10 -10 0 -8 -61 -110 -87
-145 -19 -26 -163 -309 -163 -320 0 -3 -7 -20 -17 -38 -9 -17 -18 -34 -18 -37
-2 -7 -14 -40 -26 -68 -12 -31 -41 -119 -69 -212 -12 -41 -24 -82 -27 -90 -7
-18 -9 -30 -19 -87 -3 -24 -9 -41 -13 -39 -3 2 -6 -10 -6 -27 -1 -18 -4 -50
-8 -72 -4 -22 -10 -56 -13 -75 -7 -49 -12 -75 -14 -75 -3 0 -13 -203 -14 -287
0 -54 -4 -98 -8 -98 -4 0 -3 -12 3 -27 7 -19 7 -29 0 -31 -6 -2 -8 -9 -4 -15
4 -6 8 -41 10 -77 2 -36 5 -73 7 -82 2 -10 -1 -18 -7 -18 -8 0 -7 -3 1 -9 8
-4 13 -21 11 -37 -1 -16 1 -36 5 -45 4 -8 8 -38 9 -67 1 -29 5 -52 9 -52 4 0
7 -8 7 -17 0 -30 8 -80 14 -89 3 -5 8 -25 11 -44 3 -19 15 -68 25 -109 11 -41
18 -78 15 -83 -3 -4 -2 -8 3 -8 13 0 56 -147 48 -161 -5 -8 -4 -10 4 -5 11 7
18 -3 23 -39 2 -11 9 -26 16 -34 8 -8 11 -22 9 -33 -3 -10 -1 -16 3 -13 5 3
14 -12 21 -32 6 -21 19 -48 27 -60 8 -13 11 -23 7 -23 -3 0 1 -7 9 -16 9 -8
14 -20 11 -25 -4 -5 -3 -9 2 -9 9 0 38 -58 38 -76 0 -6 8 -19 18 -28 9 -10 17
-23 17 -31 0 -7 4 -15 8 -17 11 -5 107 -172 104 -181 -1 -5 2 -6 7 -3 7 5 23
-18 22 -31 0 -1 14 -16 30 -34 16 -18 28 -38 25 -46 -3 -8 -2 -12 3 -8 5 3 19
-7 30 -22 29 -39 32 -43 68 -87 18 -22 30 -43 27 -48 -3 -5 -2 -7 3 -6 10 3
93 -80 93 -93 0 -5 5 -9 11 -9 5 0 7 -5 4 -10 -4 -6 -2 -9 2 -8 5 2 42 -28 83
-67 40 -38 93 -89 117 -111 23 -23 43 -40 43 -37 0 6 90 -67 111 -89 9 -10 21
-18 28 -18 6 0 11 -4 11 -10 0 -5 5 -10 10 -10 19 0 69 -43 63 -53 -3 -6 -1
-7 5 -3 15 9 94 -43 85 -57 -3 -6 -1 -7 6 -3 11 7 109 -46 122 -66 3 -5 9 -9
13 -9 17 3 77 -30 71 -39 -3 -6 0 -7 9 -4 13 5 72 -20 86 -37 3 -3 18 -9 33
-13 17 -4 25 -11 21 -18 -4 -7 -3 -8 5 -4 6 4 31 -1 54 -12 51 -24 77 -34 96
-38 8 -1 17 -6 20 -11 3 -4 15 -9 26 -11 11 -2 37 -9 58 -17 20 -8 38 -15 40
-14 1 0 9 -2 17 -5 82 -26 212 -60 224 -57 5 1 6 -5 3 -13 -5 -13 -3 -14 14
-3 16 10 21 9 29 -3 5 -8 6 -18 3 -24 -3 -5 -1 -6 5 -2 6 4 9 13 5 21 -3 11
-1 13 10 9 9 -3 18 -12 21 -21 5 -12 9 -13 21 -3 8 7 23 9 37 4 22 -7 38 -9
98 -13 20 -1 22 -3 10 -11 -9 -6 -10 -10 -3 -10 6 0 14 4 18 9 3 6 15 8 28 5
12 -3 34 -6 49 -9 15 -2 32 -6 37 -9 5 -4 12 0 14 6 3 8 6 9 6 2 1 -7 15 -10
37 -7 27 3 34 1 28 -9 -6 -10 -4 -10 7 -2 16 12 29 12 48 0 10 -6 12 -5 7 2
-4 7 -2 12 3 12 6 0 11 -4 11 -9 0 -6 9 -9 20 -8 11 1 20 5 20 10 0 4 5 5 11
2 18 -12 59 -13 59 -1 0 6 5 4 10 -4 5 -8 10 -11 10 -6 0 5 7 3 15 -4 9 -7 18
-10 22 -6 3 3 1 6 -5 6 -7 0 -12 5 -12 11 0 5 4 8 9 4 16 -9 71 -13 65 -4 -3
5 0 9 5 9 6 0 11 -4 11 -10 0 -5 5 -10 11 -10 5 0 8 3 6 8 -3 4 10 7 29 8 21
0 31 -3 27 -10 -4 -6 1 -5 10 3 9 7 28 11 42 9 14 -3 25 -2 25 1 0 4 12 7 28
8 15 0 45 3 67 7 22 3 56 9 75 12 19 2 48 7 64 10 17 4 26 2 23 -3 -4 -5 0
-10 7 -10 8 0 12 6 9 14 -3 7 0 13 6 13 6 0 11 -4 11 -10 0 -5 5 -10 11 -10 5
0 7 5 3 12 -5 8 -2 9 9 5 10 -4 17 -2 17 5 0 7 5 6 15 -2 8 -7 12 -17 8 -23
-3 -6 -1 -7 6 -3 9 6 9 11 0 22 -9 11 -8 14 5 15 19 2 35 5 39 9 4 4 51 12 79
12 15 1 25 4 23 8 -3 4 17 13 43 20 26 7 52 16 57 19 6 3 18 7 29 8 16 3 17 1
5 -13 -13 -16 -12 -16 8 -4 12 8 21 19 20 24 -1 6 6 10 16 10 9 -1 17 2 17 8
0 5 4 7 9 4 5 -3 34 5 66 19 31 14 61 23 66 20 5 -4 9 -2 9 4 0 10 38 27 53
23 4 -1 7 2 7 7 0 12 67 34 80 26 6 -4 7 1 3 12 -6 16 -5 17 12 3 10 -8 16
-10 12 -4 -7 13 38 47 62 47 8 0 22 6 30 14 9 7 19 13 24 13 4 0 17 9 29 19
11 11 24 18 28 16 4 -3 13 2 20 10 7 8 16 13 20 10 4 -3 11 2 14 10 3 9 17 20
32 25 21 8 29 7 41 -7 13 -16 13 -16 3 5 -10 20 -8 26 6 37 10 7 25 10 34 7 8
-3 12 -2 8 3 -4 4 12 21 35 38 23 17 45 35 49 41 4 6 8 7 8 2 0 -6 6 -1 14 9
7 10 20 16 28 12 10 -3 15 0 14 10 -2 26 30 40 56 25 20 -12 20 -11 -2 9 -24
21 -24 22 -3 17 12 -3 22 -3 21 1 -2 17 3 34 8 28 4 -3 15 5 26 18 11 14 26
25 34 25 8 0 13 4 10 9 -6 9 22 26 37 22 5 -1 6 2 3 7 -7 12 141 155 153 147
7 -4 8 1 4 11 -5 14 -3 16 13 10 14 -5 16 -4 8 4 -8 8 -4 19 16 41 16 16 33
29 40 29 6 0 9 4 6 9 -3 5 8 24 24 42 17 19 35 40 41 47 5 7 14 10 19 7 6 -3
7 1 4 10 -8 19 24 57 39 48 6 -4 8 0 4 9 -3 9 3 24 14 34 10 9 19 23 19 31 0
7 5 13 11 13 6 0 9 -6 6 -13 -3 -8 1 -14 8 -14 10 0 11 5 4 18 -13 26 -11 32
9 24 13 -5 14 -3 6 5 -9 9 -5 22 14 51 14 21 30 39 34 39 5 0 6 5 3 11 -4 6 3
13 15 16 16 4 19 8 8 15 -10 7 -9 10 5 19 9 6 15 14 12 20 -4 5 0 12 9 15 9 3
12 12 8 22 -5 14 -3 15 9 5 11 -9 14 -6 15 19 1 17 6 33 11 37 6 3 13 16 17
29 4 12 12 19 18 16 6 -4 8 -2 5 3 -10 15 33 114 46 106 6 -4 8 0 4 9 -3 9 0
24 8 34 12 18 15 25 15 42 0 4 5 0 10 -8 6 -9 10 -10 10 -3 0 6 -5 15 -10 18
-7 4 -7 11 -2 18 5 7 15 28 22 47 7 19 20 44 29 54 9 11 11 16 4 12 -8 -4 -7
8 4 39 10 25 21 45 25 45 4 0 5 6 2 14 -3 8 0 25 7 38 7 13 12 29 10 37 -1 8
2 10 10 5 8 -5 10 -3 4 6 -4 7 -2 16 6 21 11 7 11 9 1 9 -9 0 -10 5 -3 18 5 9
11 21 13 27 1 5 6 9 11 8 4 -2 7 2 7 7 0 6 -6 10 -12 10 -9 0 -8 4 2 10 13 9
13 10 0 10 -9 0 -11 3 -5 8 6 4 12 21 14 37 4 36 10 47 21 40 5 -3 12 -1 15 5
4 6 1 9 -5 8 -19 -5 -21 36 -3 50 9 6 12 12 7 12 -6 0 -11 7 -11 15 0 16 8 19
23 8 5 -5 1 0 -9 10 -11 9 -14 17 -8 17 6 0 8 7 5 15 -5 11 -2 14 12 9 17 -6
17 -5 -1 9 l-20 16 20 1 c13 0 16 3 8 8 -12 7 -12 47 -2 67 3 6 5 27 3 48 -1
20 1 37 5 37 4 0 6 23 3 51 -3 41 -1 50 10 43 10 -6 11 -5 1 7 -10 12 -10 18
-1 27 8 8 8 12 1 12 -10 0 -9 26 3 69 4 15 3 22 -3 18 -5 -3 -9 3 -8 13 1 22
15 40 15 20 0 -7 3 -10 6 -7 4 4 1 13 -5 21 -15 18 -21 98 -6 92 5 -2 9 -9 7
-15 -1 -7 2 -9 9 -5 9 5 7 12 -7 23 -15 13 -19 29 -19 84 0 38 -4 71 -8 74 -5
3 0 12 10 20 10 8 13 12 6 8 -14 -7 -29 37 -18 54 3 6 0 11 -7 11 -9 0 -9 3 2
10 10 6 11 10 3 10 -7 0 -13 7 -13 16 0 9 5 12 12 8 6 -4 4 3 -5 17 -22 30
-21 40 1 33 16 -5 16 -5 -1 6 -9 6 -14 16 -11 22 4 6 0 14 -7 19 -12 7 -11 9
1 9 10 0 11 3 3 8 -6 4 -14 27 -18 52 -4 25 -9 47 -11 49 -2 2 2 11 9 19 8 10
8 13 1 9 -7 -4 -14 0 -18 8 -3 8 0 15 7 15 7 0 4 5 -6 11 -15 9 -16 13 -5 27
10 12 10 14 1 8 -9 -5 -13 0 -13 13 0 29 3 37 15 33 5 -2 6 0 2 5 -5 4 -14 8
-20 8 -6 0 -14 12 -18 28 -5 19 -4 25 4 21 7 -3 5 0 -4 8 -9 7 -15 21 -13 31
1 9 -4 23 -11 31 -11 10 -11 16 -2 26 9 10 9 11 0 6 -8 -4 -15 3 -19 21 -4 15
-11 34 -17 41 -6 8 -6 12 1 12 5 0 13 7 16 16 5 14 4 15 -8 5 -11 -9 -16 -6
-25 20 -6 17 -8 36 -4 42 3 6 1 7 -5 3 -7 -4 -12 -1 -12 7 0 7 -10 33 -22 58
-11 24 -21 50 -21 57 0 6 -4 12 -8 12 -14 0 -19 33 -8 46 9 11 9 13 -2 9 -8
-3 -20 4 -27 16 -8 12 -9 19 -4 15 5 -3 9 1 9 8 0 8 -6 12 -14 9 -7 -3 -13 2
-13 12 0 10 5 13 12 9 7 -4 8 -3 4 5 -4 6 -11 9 -15 7 -10 -7 -73 103 -65 115
3 5 1 9 -4 9 -11 0 -40 41 -44 62 -2 7 -10 20 -19 28 -22 21 -44 62 -41 78 2
7 -1 11 -5 10 -4 -2 -9 1 -10 5 -1 5 -8 14 -16 20 -29 25 -78 97 -72 107 3 5
0 10 -7 10 -8 0 -27 18 -44 41 -16 22 -34 46 -41 53 -7 8 -9 17 -5 21 4 5 2 5
-5 1 -13 -7 -45 32 -37 46 3 4 -2 5 -10 2 -14 -6 -21 5 -17 29 0 4 -2 6 -6 5
-13 -4 -113 94 -106 105 3 6 2 7 -4 4 -5 -4 -19 4 -31 16 -11 12 -32 33 -46
46 -14 12 -23 27 -20 32 3 5 -1 6 -8 4 -15 -6 -60 39 -50 50 4 3 -1 3 -10 0
-10 -4 -23 3 -37 21 -11 15 -21 23 -21 18 -1 -5 -9 1 -18 12 -10 12 -28 25
-40 28 -12 4 -22 11 -22 15 0 4 -22 22 -50 40 -27 18 -50 37 -50 42 0 6 -5 7
-10 4 -6 -3 -13 1 -16 9 -3 9 -10 14 -14 11 -5 -3 -13 2 -18 11 -5 9 -12 15
-16 14 -11 -2 -85 43 -81 50 2 3 -6 7 -17 7 -12 1 -24 6 -27 10 -3 4 -23 16
-44 26 -21 9 -35 22 -32 27 3 6 -1 7 -10 4 -9 -4 -22 1 -31 12 -9 11 -12 13
-9 6 6 -11 3 -12 -14 -2 -12 6 -18 16 -15 22 4 6 3 8 -4 4 -6 -3 -13 -2 -17 4
-4 6 -10 8 -15 5 -14 -9 -51 15 -44 27 4 7 3 8 -5 4 -16 -10 -102 24 -94 37 3
5 1 7 -4 4 -10 -6 -51 3 -98 23 -48 20 -69 27 -86 29 -5 0 -8 5 -5 9 3 5 -5 8
-17 7 -12 -1 -31 2 -42 8 -11 6 -31 12 -45 13 -14 1 -68 14 -120 29 -52 15
-105 27 -117 28 -13 0 -23 4 -23 7 0 3 -12 5 -27 4 -16 -1 -32 1 -37 4 -5 3
-25 7 -45 8 -20 2 -52 6 -71 9 -65 10 -184 18 -260 19 -41 1 -78 6 -82 11 -5
7 -8 7 -8 0z"/>
<path d="M6410 3820 c0 -5 5 -10 11 -10 5 0 7 5 4 10 -3 6 -8 10 -11 10 -2 0
-4 -4 -4 -10z"/>
<path d="M6439 3748 c-5 -18 -6 -38 -1 -34 7 8 12 36 6 36 -2 0 -4 -1 -5 -2z"/>
<path d="M6433 3685 c0 -8 4 -12 9 -9 5 3 6 10 3 15 -9 13 -12 11 -12 -6z"/>
<path d="M6425 3300 c-3 -6 1 -7 9 -4 18 7 21 14 7 14 -6 0 -13 -4 -16 -10z"/>
<path d="M6417 3213 c-10 -9 -9 -23 1 -23 5 0 9 7 9 15 0 17 -1 18 -10 8z"/>
<path d="M6406 3098 c3 -5 10 -6 15 -3 13 9 11 12 -6 12 -8 0 -12 -4 -9 -9z"/>
<path d="M6375 2940 c3 -5 8 -10 11 -10 2 0 4 5 4 10 0 6 -5 10 -11 10 -5 0
-7 -4 -4 -10z"/>
<path d="M6345 2720 c10 -11 20 -20 23 -20 3 0 -3 9 -13 20 -10 11 -20 20 -23
20 -3 0 3 -9 13 -20z"/>
<path d="M6335 2660 c3 -5 8 -10 11 -10 2 0 4 5 4 10 0 6 -5 10 -11 10 -5 0
-7 -4 -4 -10z"/>
<path d="M6267 2547 c-3 -8 1 -14 8 -14 7 0 11 6 8 14 -3 7 -6 13 -8 13 -2 0
-5 -6 -8 -13z"/>
<path d="M6189 2297 c6 -8 7 -18 3 -22 -4 -5 -1 -5 6 -1 10 6 10 11 1 22 -6 8
-14 14 -16 14 -3 0 0 -6 6 -13z"/>
<path d="M5993 1925 c0 -8 4 -12 9 -9 5 3 6 10 3 15 -9 13 -12 11 -12 -6z"/>
<path d="M5959 1898 c-5 -18 -6 -38 -1 -34 7 8 12 36 6 36 -2 0 -4 -1 -5 -2z"/>
<path d="M5875 1779 c-4 -6 -4 -13 -1 -16 3 -4 6 -1 6 6 0 8 6 11 16 7 8 -3
12 -2 9 4 -8 13 -22 13 -30 -1z"/>
<path d="M5826 1732 c-2 -4 -1 -14 4 -22 7 -11 9 -9 7 8 -1 24 -3 26 -11 14z"/>
<path d="M5777 1635 c-4 -8 -3 -16 1 -19 4 -3 9 4 9 15 2 23 -3 25 -10 4z"/>
<path d="M5741 1604 c0 -11 3 -14 6 -6 3 7 2 16 -1 19 -3 4 -6 -2 -5 -13z"/>
<path d="M5706 1563 c-6 -14 -5 -15 5 -6 7 7 10 15 7 18 -3 3 -9 -2 -12 -12z"/>
<path d="M5615 1480 c-3 -5 -1 -10 4 -10 6 0 11 5 11 10 0 6 -2 10 -4 10 -3 0
-8 -4 -11 -10z"/>
<path d="M5590 1430 c0 -5 5 -10 11 -10 5 0 7 5 4 10 -3 6 -8 10 -11 10 -2 0
-4 -4 -4 -10z"/>
<path d="M5510 1370 c-9 -16 -8 -18 5 -14 8 3 13 10 10 14 -3 5 1 11 7 13 10
4 10 6 1 6 -7 1 -17 -8 -23 -19z"/>
<path d="M5409 1283 c-13 -16 -12 -17 4 -4 9 7 17 15 17 17 0 8 -8 3 -21 -13z"/>
<path d="M1570 1281 c0 -6 4 -13 10 -16 6 -3 7 1 4 9 -7 18 -14 21 -14 7z"/>
<path d="M5310 1196 c0 -8 4 -17 8 -20 4 -2 8 4 8 15 0 10 -4 19 -8 19 -4 0
-8 -6 -8 -14z"/>
<path d="M5260 1140 c-9 -6 -10 -10 -3 -10 6 0 15 5 18 10 8 12 4 12 -15 0z"/>
<path d="M5191 1107 c-8 -10 -7 -14 2 -14 8 0 14 6 14 14 0 7 -1 13 -2 13 -2
0 -8 -6 -14 -13z"/>
<path d="M5110 1051 c0 -6 4 -12 8 -15 5 -3 9 1 9 9 0 8 -4 15 -9 15 -4 0 -8
-4 -8 -9z"/>
<path d="M5055 1009 c-4 -6 -5 -12 -2 -15 2 -3 7 2 10 11 7 17 1 20 -8 4z"/>
<path d="M4950 939 c0 -5 5 -7 10 -4 6 3 10 8 10 11 0 2 -4 4 -10 4 -5 0 -10
-5 -10 -11z"/>
<path d="M4910 919 c0 -5 5 -7 10 -4 6 3 10 8 10 11 0 2 -4 4 -10 4 -5 0 -10
-5 -10 -11z"/>
<path d="M4830 886 c0 -2 7 -7 16 -10 8 -3 12 -2 9 4 -6 10 -25 14 -25 6z"/>
<path d="M4706 823 c-6 -14 -5 -15 5 -6 7 7 10 15 7 18 -3 3 -9 -2 -12 -12z"/>
<path d="M2333 795 c0 -8 4 -12 9 -9 5 3 6 10 3 15 -9 13 -12 11 -12 -6z"/>
<path d="M4653 793 c0 -9 4 -10 14 -2 7 6 13 12 13 14 0 1 -6 2 -13 2 -8 0
-14 -6 -14 -14z"/>
<path d="M4555 760 c-3 -5 -1 -10 4 -10 6 0 11 5 11 10 0 6 -2 10 -4 10 -3 0
-8 -4 -11 -10z"/>
<path d="M2595 709 c-4 -6 -5 -12 -2 -15 2 -3 7 2 10 11 7 17 1 20 -8 4z"/>
<path d="M4335 689 c-4 -6 -5 -12 -2 -15 2 -3 7 2 10 11 7 17 1 20 -8 4z"/>
<path d="M4269 643 c-13 -16 -12 -17 4 -4 9 7 17 15 17 17 0 8 -8 3 -21 -13z"/>
<path d="M4195 640 c3 -5 8 -10 11 -10 2 0 4 5 4 10 0 6 -5 10 -11 10 -5 0 -7
-4 -4 -10z"/>
<path d="M2970 616 c0 -2 8 -10 18 -17 15 -13 16 -12 3 4 -13 16 -21 21 -21
13z"/>
</g>
</svg>
